<svg width="100%" height="100%" viewBox="0 0 520 227" version="1.1" xmlns="http://www.w3.org/2000/svg" xmlns:xlink="http://www.w3.org/1999/xlink" xml:space="preserve" xmlns:serif="http://www.serif.com/" style="fill-rule:evenodd;clip-rule:evenodd;stroke-linejoin:round;stroke-miterlimit:2;"><g><path d="M383.448,173.817l-0,12.869l24.023,0l-0,-35.757c-13.467,1.058 -24.023,10.894 -24.023,22.888Z" style="fill-rule:nonzero;"/><path d="M411.588,150.899l-0,35.787l24.709,0l-0,-12.869c0.001,-12.195 -10.918,-22.146 -24.709,-22.918Z" style="fill-rule:nonzero;"/><rect x="383.448" y="190.804" width="24.023" height="35.862"/><rect x="411.588" y="190.804" width="24.709" height="35.862"/><path d="M72.793,186.298l-0,9.83l18.349,0l-0,-27.313c-10.286,0.808 -18.349,8.322 -18.349,17.483Z" style="fill-rule:nonzero;"/><path d="M94.288,168.792l0,27.336l18.874,0l0,-9.83c0,-9.315 -8.34,-16.915 -18.874,-17.506Z" style="fill-rule:nonzero;"/><rect x="72.793" y="199.274" width="18.349" height="27.393"/><rect x="94.288" y="199.274" width="18.874" height="27.393"/><path d="M417.943,69.229l-7.388,3.509c-1.358,-0.239 -4.23,-0.722 -5.946,-0.834c-2.305,-0.151 -6.492,-0.487 -10.847,-1.829c-4.355,-1.341 -8.94,-3.428 -10.956,-4.197c-2.016,-0.769 -5.556,-1.498 -5.556,-1.498c0,0 -2.328,-0.852 -4.453,-1.986l8.725,-9.365l2.288,-0.497c0.082,0.015 0.167,0.029 0.254,0.043c0.642,0.763 1.411,1.783 1.674,2.568c0.48,1.431 1.893,4.614 2.345,4.936c0.452,0.322 2.041,1.724 2.041,1.724l1.093,1.526l4.001,-1.988l0.823,0.62c0.5,0.377 1.171,0.435 1.729,0.151l4.014,-2.048c0.816,-0.416 1.132,-1.42 0.702,-2.228l-0.383,-0.719l3.447,-1.974l-1.217,-2.023l0.506,-1.955l2.144,1.389l6.096,-2.54l1.487,1.738l2.731,-1.734l-7.756,-8.24l-0.352,0.233l-1.802,-2.055l1.194,-1.04l-1.042,-1.694c-1.042,-1.694 -6.479,-8.217 -6.479,-8.217l-1.224,-2.3l-3.682,-2.959c0,0 -1.664,0.042 -4.381,2.331c-2.717,2.289 -3.661,4.477 -3.661,4.477l3.643,5.791l-0.754,0.885c-0.838,0.011 -1.654,0.028 -2.043,0.043c-0.905,0.034 -0.574,-0.346 -1.573,0.41c-0.999,0.756 -1.782,2.288 -2.232,2.659c-0.45,0.37 -0.648,0.4 -1.431,1.932c-0.783,1.532 -1.356,1.645 -2.147,1.763c-0.791,0.118 -1.019,-0.05 -2.7,0.201c-1.682,0.251 -2.418,0.058 -2.843,-0.081c-0.425,-0.139 -0.934,-0.164 -1.74,-0.145c-0.806,0.019 -3.382,-0.304 -4.232,-0.582c-0.85,-0.278 -3.837,-0.979 -6.487,-1.459c-6.607,-1.195 -6.084,-7.592 -13.846,-13.205c1.04,0.323 2.349,0.861 3.865,1.047c1.801,0.22 1.983,-1.766 1.887,-2.29c-0.096,-0.524 0.038,-0.939 0.038,-0.939l0.553,-0.109c0.553,-0.109 0.359,-0.786 0.359,-0.786l0.349,-0.152c0.349,-0.152 0.397,-0.502 0.314,-0.807c-0.084,-0.306 -0.108,-0.742 0.072,-1.135c0.18,-0.393 1.322,0.045 2.052,-0.085c0.731,-0.13 0.387,-1.091 0.246,-1.637c-0.142,-0.546 -0.337,-0.852 -0.327,-1.485c0.01,-0.633 -0.271,-2.096 -0.329,-2.336c-0.058,-0.24 0.088,-0.437 0.735,-0.872c0.647,-0.436 0.559,-1.222 0.509,-1.724c-0.05,-0.502 0.152,-1.31 0.412,-1.877c0.26,-0.567 0.248,-2.008 0.248,-2.008c0,0 0.12,-0.262 0.349,-0.152c0.229,0.109 0.277,-0.24 0.515,-0.392c0.238,-0.153 0.004,-0.742 -0.235,-1.441c-0.239,-0.699 -0.619,-1.092 -0.99,-1.747c-0.371,-0.655 -1.132,-1.071 -1.523,-1.682c-0.391,-0.612 -0.673,-0.852 -1.184,-1.202c-0.511,-0.35 -0.778,-0.743 -1.092,-1.158c-0.313,-0.415 -1.725,-0.875 -2.124,-1.225c-0.399,-0.35 -0.695,-0.437 -1.533,-1.049c-0.838,-0.612 -1.07,-0.35 -1.91,-0.591c-0.84,-0.241 -1.24,-0.591 -2.323,-0.788c-1.084,-0.198 -3.386,-0.178 -4.07,-0.026c-0.685,0.152 -1.1,0.326 -2.074,0.5c-0.974,0.174 -0.653,0.327 -1.024,0.894c-0.371,0.567 -0.878,0.698 -1.887,1.068c-1.008,0.37 -0.557,0.851 -1.04,1.418c-0.483,0.567 -1.014,1.484 -1.679,2.815c-0.665,1.331 -0.036,1.79 -0.612,3.536c-0.575,1.746 -0.06,1.353 -0.124,2.227c-0.064,0.873 0.134,0.808 0.445,1.594c0.311,0.786 0.075,4.235 -0.219,4.999c-0.098,0.256 -0.51,1.048 -1.011,1.975c-0.135,0.084 -0.264,0.192 -0.383,0.336c-0.902,1.088 -2.433,2.311 -3.646,2.857c-1.213,0.546 -4.995,2.614 -8.202,5.491c-3.207,2.877 -8.977,7.266 -12.938,14.663c-9.567,17.864 -9.286,25.331 -9.381,27.309c-0.095,1.978 -0.37,3.603 0.38,5.442c0.121,0.297 1.208,0.742 2.232,1.12c1.184,2.035 2.635,3.745 3.447,4.263c2.414,1.54 5.929,3.742 8.14,4.224c2.211,0.483 3.759,1.787 5.087,2.005c1.328,0.218 6.364,4.933 6.904,5.775c0.307,0.479 2.197,2.049 2.175,3.789c-3.43,1.093 -8.516,3.851 -12.177,3.495c-0.072,0.099 -0.192,0.162 -0.346,0.124c-0.229,-0.055 -0.458,-0.096 -0.688,-0.128c-0.026,0.096 -0.17,0.203 -0.442,0.329c0,0 -2.94,0.324 -4.953,1.641c-2.012,1.317 -2.935,2.116 -3.405,2.395c-0.242,0.143 -0.471,0.481 -0.63,0.842c-1.682,0.536 -3.093,0.855 -3.65,1.845c-0.621,1.106 -0.13,2.248 1.807,5.524c1.937,3.276 1.446,1.922 2.694,2.474c1.247,0.552 2.35,0.821 2.35,0.821c0,0 1.49,0.961 1.291,2.184c-0.003,0.017 0.003,0.038 0.001,0.055l-2.908,1.381l-31.573,-34.318l-99.523,32.946l-24.709,-9.531l0,-21.149l-19.144,-8.019l0,50.869l-9.572,-13.593l0,-19.184l-42.666,-16.457l-80.937,137.96l6.177,4.805l21.964,0l61.032,-111.191l2.98,5.126l-58.737,107.003l7.969,0l54.868,-99.961l45.085,77.557l52.85,0l76.873,-90.421l2.595,4.097l-74.194,87.27l7.969,0l69.628,-81.898l7.044,11.122l-81.36,91.287l110.505,0l95.774,-128.351l2.676,4.428l-93.176,124.869l7.969,0l88.773,-118.968l71.318,118.021l27.442,0l5.504,-5.491l-101.585,-150.999Zm-28.638,-19.855c0.563,-0.317 0.581,-0.947 1.019,-1.383c0.437,-0.436 1.232,-0.589 1.561,-1.117c0.26,-0.418 0.158,-0.974 0.439,-1.404c0.336,-0.515 0.875,-0.578 1.437,-0.605c0.383,-0.018 0.718,-0.049 0.868,-0.469c0.142,-0.397 -0.077,-0.833 -0.321,-1.14c-0.082,-0.103 -0.132,-0.211 -0.158,-0.32c-0.028,-0.096 -0.134,-0.438 -0.343,-0.848l0.741,-0.87l1.632,-1.653l5.778,5.123l0.556,-0.484l1.063,1.212l-1.429,0.156l-0.513,1.678l-2.57,1.508l-2.773,0.07l-5.353,3.41l-0.906,1.466l-1.409,0.874l-1.889,-2.85c0.968,-0.634 1.546,-1.778 2.57,-2.354Zm-16.003,23.82c1.899,0.873 6.861,2.919 10.014,4.104c3.153,1.185 5.585,0.816 9.836,0.893c1.688,0.03 3.414,0.245 4.886,0.493l-12.602,5.986c-0.211,-0.103 -0.446,-0.203 -0.73,-0.29c-1.415,-0.437 -1.8,-1.069 -3.996,-0.257c-1.797,0.665 -5.503,2.014 -7.243,2.243c0.102,-0.403 0.022,-0.917 -0.43,-1.621c-1.353,-2.108 -5.726,-10.686 -7.375,-15.433c2.646,1.404 5.686,2.983 7.64,3.882Zm1.715,-19.586c1.568,-0.335 1.578,-0.943 2.26,-0.438c0.03,0.022 0.055,0.039 0.083,0.06l-6.683,7.839c-0.055,-0.042 -0.11,-0.085 -0.162,-0.127c-1.18,-0.959 -3.659,-3.525 -5.79,-5.792c2.487,-0.294 8.983,-1.262 10.292,-1.542Zm-23.602,39.416c-3.395,-7.785 -16.431,-17.043 -16.431,-17.043c0,0 2.05,-1.434 3.181,-2.635c1.131,-1.201 0.662,-1.375 1.75,-1.717c1.088,-0.342 3.317,-3.319 4.123,-3.36c0.805,-0.041 0.5,0.75 0.974,2.229c0.473,1.479 -0.707,2.686 0.211,4.117c0.918,1.431 3.131,1.462 4.018,4.696c0.887,3.233 1.295,3.684 1.738,5.301c0.443,1.617 2.016,3.697 2.418,4.509c0.402,0.812 -0.457,0.769 -0.001,1.664c0.456,0.896 2.405,5.205 2.405,5.205c0,0 0.238,0.765 0.481,0.663c0.045,0.676 0.135,1.218 0.291,1.727l-1.944,0.924c-0.845,-2.172 -2.348,-4.294 -3.214,-6.28Z" style="fill-rule:nonzero;"/></g></svg>